<svg width="500" height="500" viewBox="0 0 500 500" fill="none" xmlns="http://www.w3.org/2000/svg">
<path d="M439.64 313.226L457.672 320.998L456.029 324.811L441.14 318.393L437.808 326.124L434.664 324.769L439.64 313.226ZM438.915 361.351L422.433 350.678L424.689 347.193L441.172 357.866L438.915 361.351ZM420.402 387.685L406.257 380.975L406.133 381.108L413.794 394.765L410.654 398.129L400.918 379.782L404.569 375.871L423.549 384.314L420.402 387.685ZM379.591 402.131L390.982 418.126L380.204 425.801L378.219 423.013L385.615 417.746L382.901 413.935L376.059 418.807L374.073 416.019L380.915 411.147L378.195 407.328L370.768 412.617L368.782 409.829L379.591 402.131ZM316.506 452.547C316.795 453.268 317.278 453.753 317.956 454.003C318.634 454.252 319.452 454.238 320.409 453.96C321.06 453.772 321.583 453.52 321.978 453.206C322.374 452.898 322.646 452.55 322.793 452.161C322.934 451.774 322.945 451.378 322.828 450.973C322.742 450.632 322.586 450.358 322.36 450.15C322.127 449.945 321.846 449.79 321.516 449.686C321.188 449.588 320.824 449.524 320.422 449.494C320.023 449.47 319.604 449.472 319.166 449.499L317.354 449.585C316.478 449.64 315.652 449.613 314.875 449.505C314.098 449.398 313.394 449.193 312.76 448.891C312.127 448.588 311.584 448.173 311.131 447.646C310.673 447.12 310.326 446.465 310.093 445.681C309.764 444.525 309.769 443.439 310.106 442.422C310.439 441.414 311.085 440.518 312.042 439.735C312.995 438.959 314.239 438.349 315.774 437.904C317.297 437.463 318.69 437.311 319.955 437.45C321.214 437.591 322.292 438.027 323.19 438.759C324.083 439.498 324.742 440.542 325.166 441.89L321.307 443.008C321.081 442.388 320.747 441.913 320.305 441.582C319.858 441.259 319.334 441.068 318.731 441.01C318.124 440.96 317.477 441.034 316.789 441.233C316.114 441.429 315.556 441.697 315.116 442.038C314.67 442.381 314.359 442.767 314.184 443.197C314.009 443.627 313.988 444.069 314.119 444.523C314.242 444.947 314.471 445.266 314.807 445.482C315.136 445.699 315.569 445.84 316.107 445.904C316.638 445.969 317.272 445.985 318.008 445.952L320.211 445.872C321.913 445.798 323.344 446.038 324.503 446.594C325.662 447.15 326.441 448.125 326.839 449.521C327.176 450.661 327.162 451.746 326.795 452.778C326.422 453.811 325.765 454.724 324.824 455.516C323.882 456.308 322.724 456.903 321.348 457.302C319.949 457.708 318.658 457.823 317.475 457.646C316.286 457.472 315.277 457.042 314.446 456.358C313.615 455.674 313.028 454.773 312.684 453.655L316.506 452.547ZM282.854 466.824L280.722 447.304L284.849 446.853L286.981 466.374L282.854 466.824ZM255.336 465.983L255.121 469.399L239.026 468.389L239.24 464.972L245.24 465.349L246.256 449.167L250.352 449.425L249.336 465.606L255.336 465.983ZM215.898 446.929L210.884 465.915L198.091 462.537L198.965 459.227L207.744 461.546L208.939 457.022L200.818 454.877L201.692 451.568L209.813 453.712L211.01 449.179L202.194 446.851L203.067 443.542L215.898 446.929ZM146.353 418.629C145.845 419.702 145.551 421.033 145.471 422.625C145.381 424.231 145.643 425.962 146.256 427.818C146.855 429.663 147.696 431.162 148.779 432.315L148.13 433.244C146.669 432.663 145.085 432.368 143.378 432.361C141.645 432.358 139.991 432.651 138.415 433.241C136.804 433.85 135.49 434.645 134.475 435.626L133.546 434.977C133.928 434.146 134.194 433.201 134.342 432.14C134.48 431.095 134.486 430.001 134.361 428.86C134.211 427.723 133.941 426.601 133.551 425.494C132.963 423.853 132.157 422.477 131.132 421.366L131.782 420.437C132.707 420.842 133.78 421.097 135.001 421.204C136.207 421.3 137.422 421.26 138.644 421.082C139.856 420.919 140.961 420.626 141.959 420.203C143.426 419.581 144.58 418.84 145.423 417.98L146.353 418.629ZM97.0723 378.65L81.0445 389.994L78.646 386.605L91.8799 377.239L87.0165 370.367L89.8104 368.39L97.0723 378.65ZM56.3715 352.979L74.0607 344.454L75.8631 348.194L58.1739 356.719L56.3715 352.979ZM43.5087 323.385L56.6317 314.848L56.5833 314.672L40.9371 314.049L39.7149 309.612L60.4438 310.924L61.8646 316.082L44.7334 327.832L43.5087 323.385ZM52.5692 281.054L32.9783 282.389L32.0786 269.188L35.4936 268.955L36.111 278.014L40.7791 277.696L40.2081 269.316L43.6231 269.083L44.1942 277.463L48.8719 277.144L48.2519 268.047L51.6669 267.814L52.5692 281.054ZM42.5601 200.933C41.7938 200.803 41.1274 200.962 40.5611 201.411C39.9949 201.859 39.5805 202.564 39.318 203.526C39.1396 204.18 39.0815 204.757 39.1436 205.258C39.1996 205.757 39.3551 206.17 39.6102 206.498C39.8669 206.82 40.1988 207.037 40.6058 207.148C40.9416 207.253 41.2569 207.262 41.5518 207.177C41.8484 207.086 42.127 206.927 42.3877 206.7C42.6423 206.471 42.887 206.193 43.122 205.866C43.3508 205.538 43.5678 205.18 43.773 204.792L44.6445 203.201C45.0549 202.425 45.5086 201.734 46.0054 201.127C46.5022 200.521 47.0446 200.026 47.6328 199.643C48.2209 199.261 48.8581 199.014 49.5443 198.903C50.2322 198.786 50.9717 198.832 51.7627 199.041C52.9203 199.363 53.8447 199.934 54.5358 200.752C55.2224 201.562 55.6503 202.58 55.8195 203.805C55.9841 205.023 55.8561 206.403 55.4354 207.944C55.0181 209.474 54.4203 210.742 53.642 211.749C52.8654 212.749 51.9311 213.442 50.8389 213.826C49.7423 214.203 48.5084 214.22 47.1371 213.879L48.1947 210.004C48.8417 210.134 49.4216 210.097 49.9346 209.892C50.4431 209.68 50.8794 209.332 51.2433 208.848C51.6027 208.356 51.8766 207.765 52.0651 207.074C52.2502 206.396 52.3122 205.78 52.2512 205.227C52.1919 204.667 52.0243 204.201 51.7485 203.828C51.4728 203.454 51.1067 203.205 50.6504 203.081C50.2249 202.965 49.8327 202.993 49.4739 203.167C49.1168 203.335 48.7708 203.631 48.4361 204.057C48.103 204.476 47.759 205.008 47.404 205.653L46.3232 207.575C45.4989 209.066 44.5473 210.161 43.4686 210.861C42.3899 211.56 41.1514 211.716 39.7533 211.328C38.6046 211.021 37.6859 210.442 36.997 209.592C36.3098 208.735 35.8738 207.698 35.6889 206.482C35.5041 205.265 35.6001 203.966 35.9771 202.585C36.3607 201.179 36.9361 200.017 37.7032 199.1C38.4719 198.177 39.3648 197.54 40.3818 197.188C41.3988 196.836 42.4741 196.804 43.6076 197.094L42.5601 200.933ZM47.9288 164.772L65.6947 173.136L63.9263 176.892L46.1604 168.528L47.9288 164.772ZM63.0196 141.713L60.2204 139.742L69.5027 126.554L72.3018 128.524L68.8417 133.441L82.1003 142.772L79.7383 146.128L66.4797 136.796L63.0196 141.713ZM99.8904 118.071L86.3283 103.871L95.8971 94.7323L98.2612 97.2077L91.6948 103.479L94.9264 106.863L101 101.062L103.365 103.537L97.2904 109.338L100.529 112.729L107.123 106.431L109.487 108.906L99.8904 118.071ZM160.348 73.5259C159.697 72.5336 158.713 71.5889 157.397 70.6917C156.073 69.778 154.459 69.0994 152.555 68.6559C150.668 68.2052 148.95 68.1419 147.402 68.4662L146.948 67.4274C148.205 66.4839 149.281 65.2853 150.177 63.8317C151.083 62.3544 151.694 60.7896 152.012 59.1373C152.332 57.4448 152.338 55.9096 152.029 54.5317L153.068 54.0768C153.577 54.8362 154.246 55.5553 155.074 56.2342C155.894 56.8966 156.824 57.4719 157.863 57.96C158.912 58.4245 160.01 58.7786 161.158 59.0224C162.865 59.3753 164.46 59.404 165.942 59.1087L166.397 60.1474C165.569 60.726 164.792 61.5086 164.065 62.4952C163.354 63.4746 162.756 64.5323 162.271 65.6683C161.779 66.7878 161.453 67.8836 161.294 68.9555C161.06 70.5315 161.091 71.9033 161.386 73.071L160.348 73.5259ZM220.164 52.373L218.893 32.7778L223.036 32.509L224.086 48.6884L232.486 48.1433L232.708 51.5591L220.164 52.373ZM263.313 31.127L261.349 50.6649L257.218 50.2496L259.182 30.7117L263.313 31.127ZM295.253 35.5977L295.697 51.2472L295.872 51.2975L304.561 38.2706L308.985 39.5409L297.059 56.5461L291.916 55.0694L290.821 34.3248L295.253 35.5977ZM326.652 65.4008L335.751 47.9997L347.476 54.1308L345.89 57.1641L337.844 52.9567L335.676 57.1031L343.119 60.995L341.533 64.0283L334.09 60.1364L331.917 64.2912L339.997 68.5163L338.411 71.5496L326.652 65.4008ZM400.176 98.7596C400.687 98.1741 400.899 97.5227 400.813 96.8056C400.727 96.0884 400.342 95.3665 399.66 94.6398C399.196 94.146 398.734 93.7947 398.275 93.586C397.82 93.3729 397.386 93.2893 396.973 93.3352C396.565 93.3858 396.207 93.5556 395.899 93.8444C395.634 94.0759 395.461 94.3395 395.38 94.6354C395.302 94.936 395.292 95.2568 395.35 95.5977C395.411 95.9343 395.52 96.2881 395.676 96.6592C395.836 97.026 396.028 97.3983 396.252 97.776L397.152 99.3506C397.599 100.106 397.951 100.854 398.209 101.595C398.466 102.335 398.604 103.056 398.623 103.758C398.642 104.459 398.519 105.132 398.255 105.775C397.995 106.422 397.569 107.028 396.977 107.593C396.097 108.412 395.128 108.901 394.069 109.063C393.019 109.225 391.928 109.057 390.795 108.561C389.671 108.065 388.562 107.234 387.467 106.07C386.382 104.914 385.613 103.742 385.162 102.552C384.715 101.367 384.613 100.208 384.856 99.0765C385.109 97.9447 385.739 96.8836 386.746 95.893L389.497 98.8207C389.048 99.3041 388.777 99.818 388.683 100.362C388.598 100.907 388.667 101.461 388.889 102.024C389.12 102.587 389.481 103.13 389.971 103.651C390.452 104.164 390.945 104.539 391.449 104.776C391.957 105.018 392.442 105.119 392.904 105.079C393.367 105.039 393.77 104.857 394.115 104.533C394.437 104.231 394.617 103.882 394.656 103.485C394.7 103.093 394.628 102.643 394.441 102.135C394.257 101.632 393.983 101.061 393.619 100.421L392.546 98.495C391.706 97.0128 391.27 95.629 391.237 94.3437C391.205 93.0585 391.72 91.9214 392.782 90.9324C393.644 90.1136 394.617 89.6329 395.702 89.4904C396.792 89.3524 397.904 89.5227 399.037 90.0011C400.171 90.4796 401.228 91.2405 402.209 92.284C403.207 93.3461 403.896 94.4438 404.277 95.5771C404.662 96.7151 404.739 97.8095 404.507 98.8605C404.275 99.9114 403.74 100.844 402.9 101.659L400.176 98.7596ZM428.185 122.204L411.788 133.008L409.504 129.541L425.9 118.737L428.185 122.204ZM440.004 147.107L443.145 145.746L449.557 160.543L446.417 161.904L444.026 156.388L429.15 162.835L427.518 159.07L442.395 152.623L440.004 147.107ZM440.945 190.894L460.143 186.768L462.923 199.704L459.577 200.424L457.669 191.546L453.094 192.53L454.859 200.741L451.513 201.461L449.748 193.249L445.164 194.234L447.08 203.149L443.733 203.868L440.945 190.894ZM447.286 265.722C448.472 265.685 449.791 265.34 451.244 264.686C452.715 264.035 454.136 263.013 455.509 261.622C456.879 260.248 457.831 258.816 458.363 257.327L459.486 257.482C459.634 259.046 460.094 260.591 460.865 262.114C461.652 263.658 462.666 264.997 463.909 266.131C465.185 267.288 466.492 268.095 467.828 268.551L467.673 269.675C466.759 269.712 465.797 269.907 464.785 270.258C463.792 270.612 462.815 271.104 461.856 271.735C460.913 272.387 460.037 273.138 459.229 273.99C458.037 275.261 457.179 276.606 456.657 278.024L455.533 277.869C455.472 276.861 455.211 275.789 454.75 274.654C454.286 273.536 453.696 272.474 452.981 271.467C452.284 270.462 451.519 269.612 450.689 268.916C449.467 267.894 448.281 267.203 447.131 266.845L447.286 265.722Z" fill="#4A5464"/>
<path d="M313.639 239.393V186.36H260.606M313.639 186.36L186.359 313.639" stroke="#4A5464" stroke-width="4" stroke-linecap="round" stroke-linejoin="round"/>
</svg>
