<svg width="125" height="125" viewBox="0 0 125 125" fill="none" xmlns="http://www.w3.org/2000/svg">
<path d="M109.91 78.3063L114.417 80.2518L114.005 81.2047L110.284 79.5984L109.45 81.5307L108.664 81.1915L109.91 78.3063ZM109.716 90.3426L105.601 87.666L106.167 86.7959L110.282 89.4726L109.716 90.3426ZM105.092 96.905L101.553 95.2337L101.522 95.267L103.443 98.6777L102.66 99.5202L100.217 94.9378L101.128 93.9583L105.877 96.0607L105.092 96.905ZM94.8951 100.534L97.7423 104.533L95.0476 106.452L94.5513 105.755L96.4005 104.438L95.7221 103.485L94.0115 104.703L93.5152 104.006L95.2257 102.788L94.5459 101.833L92.6889 103.155L92.1926 102.458L94.8951 100.534ZM79.1178 113.13C79.19 113.31 79.3109 113.431 79.4803 113.494C79.6498 113.556 79.8543 113.553 80.0937 113.483C80.2564 113.436 80.3871 113.373 80.4858 113.295C80.585 113.218 80.6529 113.131 80.6896 113.034C80.7248 112.937 80.7278 112.838 80.6984 112.736C80.677 112.651 80.638 112.583 80.5814 112.531C80.5233 112.479 80.453 112.441 80.3706 112.415C80.2886 112.39 80.1975 112.374 80.0971 112.367C79.9972 112.361 79.8925 112.361 79.783 112.368L79.33 112.389C79.111 112.403 78.9044 112.396 78.7103 112.369C78.5162 112.342 78.3399 112.291 78.1816 112.215C78.0233 112.14 77.8876 112.036 77.7745 111.904C77.6598 111.773 77.5733 111.609 77.5148 111.413C77.4328 111.124 77.434 110.852 77.5184 110.598C77.6018 110.346 77.7631 110.122 78.0025 109.926C78.2409 109.733 78.5519 109.58 78.9356 109.469C79.3163 109.359 79.6647 109.321 79.9809 109.356C80.2956 109.391 80.5651 109.5 80.7895 109.683C81.0127 109.868 81.1773 110.129 81.2833 110.466L80.3186 110.745C80.2621 110.59 80.1786 110.471 80.0681 110.389C79.9565 110.308 79.8254 110.26 79.6747 110.246C79.523 110.233 79.3612 110.251 79.1893 110.301C79.0204 110.35 78.881 110.417 78.7709 110.502C78.6592 110.588 78.5816 110.685 78.5378 110.792C78.4941 110.9 78.4887 111.01 78.5216 111.124C78.5523 111.23 78.6096 111.309 78.6934 111.363C78.7757 111.418 78.884 111.453 79.0184 111.469C79.1513 111.485 79.3097 111.489 79.4936 111.481L80.0444 111.461C80.4699 111.443 80.8276 111.503 81.1174 111.642C81.4073 111.781 81.6019 112.025 81.7013 112.374C81.7856 112.659 81.7818 112.93 81.6902 113.188C81.597 113.446 81.4326 113.674 81.1972 113.872C80.9617 114.07 80.6721 114.219 80.3283 114.319C79.9783 114.42 79.6555 114.449 79.3599 114.405C79.0628 114.361 78.8104 114.253 78.6027 114.082C78.3951 113.911 78.2483 113.686 78.1623 113.406L79.1178 113.13ZM70.7109 116.698L70.1736 111.818L71.2052 111.705L71.7426 116.584L70.7109 116.698ZM63.8262 116.493L63.7721 117.347L59.7484 117.092L59.8024 116.238L61.3024 116.333L61.5583 112.288L62.5822 112.353L62.3262 116.398L63.8262 116.493ZM53.9691 111.725L52.7171 116.472L49.5186 115.628L49.7368 114.801L51.9317 115.38L52.2301 114.249L50.1997 113.713L50.418 112.886L52.4483 113.421L52.7473 112.288L50.5431 111.706L50.7614 110.879L53.9691 111.725ZM36.5833 104.651C36.4561 104.919 36.3824 105.252 36.3621 105.65C36.3392 106.051 36.4042 106.484 36.5571 106.948C36.7064 107.41 36.9163 107.785 37.1869 108.073L37.0243 108.305C36.6593 108.16 36.2634 108.086 35.8365 108.083C35.4033 108.082 34.9897 108.155 34.5956 108.302C34.1926 108.454 33.8641 108.653 33.6101 108.898L33.3779 108.735C33.4737 108.528 33.5403 108.291 33.5776 108.026C33.6122 107.765 33.6141 107.492 33.5832 107.206C33.546 106.922 33.4787 106.641 33.3814 106.365C33.2347 105.954 33.0335 105.61 32.7777 105.332L32.9403 105.1C33.1714 105.201 33.4396 105.265 33.7448 105.292C34.0464 105.317 34.35 105.307 34.6556 105.263C34.9586 105.222 35.2349 105.149 35.4845 105.044C35.8514 104.889 36.1402 104.704 36.3511 104.489L36.5833 104.651ZM24.2707 94.6482L20.2623 97.4823L19.6631 96.6348L22.9727 94.2948L21.7578 92.5763L22.4565 92.0823L24.2707 94.6482ZM14.0999 88.2279L18.5228 86.0979L18.9732 87.033L14.5502 89.163L14.0999 88.2279ZM10.8871 80.834L14.1668 78.698L14.1547 78.6541L10.243 78.5003L9.93694 77.3912L15.1193 77.7165L15.4752 79.0058L11.1938 81.9454L10.8871 80.834ZM13.148 70.2511L8.2499 70.5797L8.0285 67.2792L8.88232 67.222L9.03425 69.4869L10.2014 69.4086L10.0608 67.3135L10.9146 67.2562L11.0552 69.3513L12.2247 69.2728L12.0721 66.9984L12.9259 66.9411L13.148 70.2511ZM10.6525 50.222C10.4609 50.1896 10.2943 50.2294 10.1527 50.3415C10.0111 50.4535 9.90746 50.6298 9.84178 50.8703C9.79715 51.0337 9.78259 51.178 9.79811 51.3031C9.81208 51.4279 9.85093 51.5313 9.91467 51.6133C9.97883 51.6937 10.0618 51.7479 10.1635 51.7757C10.2475 51.8019 10.3263 51.8044 10.4 51.7831C10.4742 51.7603 10.5439 51.7205 10.6091 51.6638C10.6727 51.6066 10.7339 51.5372 10.7927 51.4555C10.8499 51.3734 10.9041 51.2838 10.9555 51.1869L11.1734 50.7892C11.2761 50.5953 11.3895 50.4225 11.5138 50.2709C11.638 50.1193 11.7736 49.9956 11.9207 49.9C12.0678 49.8043 12.2271 49.7426 12.3986 49.7149C12.5706 49.6857 12.7555 49.6973 12.9532 49.7496C13.2426 49.8303 13.4737 49.9729 13.6464 50.1775C13.818 50.3801 13.9249 50.6345 13.9671 50.9409C14.0082 51.2454 13.9762 51.5903 13.8709 51.9757C13.7665 52.358 13.617 52.6749 13.4223 52.9266C13.2281 53.1767 12.9945 53.3498 12.7215 53.4458C12.4473 53.5399 12.1388 53.5443 11.796 53.4589L12.0606 52.4901C12.2223 52.5227 12.3673 52.5134 12.4956 52.4623C12.6227 52.4092 12.7318 52.3222 12.8228 52.2013C12.9127 52.0784 12.9812 51.9306 13.0284 51.758C13.0747 51.5884 13.0902 51.4345 13.075 51.2961C13.0602 51.1562 13.0183 51.0396 12.9494 50.9462C12.8805 50.8529 12.789 50.7906 12.6749 50.7595C12.5685 50.7304 12.4705 50.7376 12.3808 50.781C12.2915 50.8229 12.205 50.897 12.1213 51.0033C12.038 51.1081 11.952 51.2412 11.8632 51.4025L11.5929 51.8828C11.3867 52.2555 11.1488 52.5293 10.879 52.7041C10.6093 52.8789 10.2997 52.9178 9.95019 52.8206C9.66304 52.7439 9.43338 52.5992 9.2612 52.3865C9.08945 52.1723 8.9805 51.9131 8.93436 51.6089C8.88822 51.3048 8.9123 50.98 9.00661 50.6347C9.1026 50.2833 9.24651 49.9929 9.43832 49.7637C9.63056 49.5329 9.85381 49.3736 10.1081 49.2856C10.3624 49.1977 10.6312 49.19 10.9145 49.2624L10.6525 50.222ZM11.9968 41.1828L16.4375 43.2754L15.9951 44.2143L11.5543 42.1216L11.9968 41.1828ZM15.7719 35.419L15.0725 34.926L17.3952 31.6306L18.0947 32.1236L17.2288 33.352L20.5419 35.6872L19.9509 36.5258L16.6378 34.1906L15.7719 35.419ZM24.9926 29.516L21.6032 25.9649L23.996 23.6809L24.5869 24.3L22.9448 25.8673L23.7524 26.7134L25.2714 25.2637L25.8622 25.8827L24.3433 27.3325L25.1526 28.1804L26.8016 26.6065L27.3924 27.2255L24.9926 29.516ZM40.1058 18.3825C39.943 18.1345 39.6969 17.8984 39.3677 17.6743C39.0366 17.4461 38.6331 17.2766 38.1571 17.166C37.6852 17.0536 37.2558 17.038 36.8688 17.1192L36.755 16.8596C37.0691 16.6236 37.3381 16.3238 37.5619 15.9603C37.7881 15.5908 37.9408 15.1995 38.02 14.7864C38.0998 14.3633 38.101 13.9795 38.0236 13.635L38.2833 13.5212C38.4107 13.7109 38.578 13.8906 38.785 14.0603C38.9903 14.2257 39.2228 14.3694 39.4827 14.4913C39.7448 14.6073 40.0195 14.6957 40.3066 14.7565C40.7333 14.8445 41.132 14.8515 41.5024 14.7775L41.6163 15.0371C41.4095 15.1818 41.2153 15.3776 41.0336 15.6243C40.856 15.8693 40.7067 16.1338 40.5856 16.4178C40.4627 16.6978 40.3814 16.9718 40.3417 17.2398C40.2835 17.6338 40.2915 17.9767 40.3654 18.2686L40.1058 18.3825ZM55.0585 13.0943L54.7487 8.19502L55.7845 8.12951L56.0404 12.1748L58.1408 12.0419L58.1948 12.896L55.0585 13.0943ZM65.8465 7.79772L65.3546 12.6821L64.3219 12.5781L64.8138 7.69371L65.8465 7.79772ZM73.8285 8.91592L73.9399 12.8283L73.9837 12.8408L76.1555 9.58392L77.2615 9.90138L74.2803 14.153L72.9947 13.7839L72.7203 8.59779L73.8285 8.91592ZM81.6774 16.3658L83.9542 12.0166L86.8848 13.5507L86.4879 14.3089L84.4769 13.2561L83.9344 14.2924L85.7947 15.2663L85.3978 16.0244L83.5375 15.0506L82.9939 16.089L85.0134 17.1462L84.6165 17.9044L81.6774 16.3658ZM100.052 24.7125C100.179 24.5661 100.233 24.4033 100.211 24.224C100.189 24.0447 100.093 23.8642 99.9227 23.6825C99.8067 23.5591 99.6913 23.4712 99.5765 23.419C99.4628 23.3658 99.3544 23.3449 99.2511 23.3563C99.149 23.369 99.0595 23.4114 98.9826 23.4836C98.9164 23.5415 98.8731 23.6074 98.8527 23.6814C98.8334 23.7565 98.8309 23.8367 98.8452 23.9219C98.8606 24.0061 98.8878 24.0945 98.9268 24.1873C98.9669 24.279 99.0148 24.3721 99.0707 24.4665L99.2958 24.8602C99.4075 25.0491 99.4955 25.2361 99.5598 25.4212C99.6242 25.6064 99.6587 25.7866 99.6634 25.962C99.6681 26.1374 99.6374 26.3054 99.5713 26.4662C99.5064 26.6281 99.3999 26.7796 99.2519 26.9209C99.0319 27.1254 98.7895 27.2479 98.5249 27.2882C98.2624 27.3287 97.9896 27.2868 97.7063 27.1627C97.4253 27.0386 97.148 26.831 96.8745 26.5398C96.6031 26.251 96.411 25.9578 96.2982 25.6604C96.1865 25.3641 96.161 25.0745 96.2218 24.7915C96.2849 24.5085 96.4424 24.2433 96.6943 23.9956L97.382 24.7276C97.2697 24.8484 97.2019 24.9769 97.1784 25.113C97.1572 25.2491 97.1744 25.3876 97.2299 25.5283C97.2877 25.6692 97.3779 25.8048 97.5004 25.9353C97.6208 26.0634 97.7439 26.1571 97.8698 26.2164C97.9968 26.2769 98.1181 26.3022 98.2337 26.2922C98.3493 26.2822 98.4502 26.2368 98.5364 26.1558C98.6168 26.0803 98.6619 25.993 98.6718 25.8938C98.6827 25.7958 98.6648 25.6833 98.6179 25.5563C98.572 25.4306 98.5036 25.2877 98.4125 25.1277L98.1443 24.6462C97.9343 24.2756 97.8252 23.9297 97.8171 23.6084C97.8091 23.2871 97.9378 23.0028 98.2032 22.7556C98.4188 22.5509 98.6622 22.4307 98.9335 22.3951C99.2059 22.3606 99.4838 22.4032 99.7672 22.5228C100.051 22.6425 100.315 22.8327 100.56 23.0936C100.809 23.3591 100.982 23.6336 101.077 23.9169C101.173 24.2014 101.192 24.475 101.134 24.7377C101.077 25.0005 100.943 25.2337 100.733 25.4374L100.052 24.7125ZM107.053 30.5738L102.953 33.2739L102.382 32.4071L106.482 29.707L107.053 30.5738ZM110.006 36.7995L110.791 36.4593L112.394 40.159L111.609 40.4991L111.011 39.12L107.292 40.7311L106.884 39.7897L110.603 38.1786L110.006 36.7995ZM110.239 47.7462L115.039 46.7193L115.731 49.954L114.895 50.1331L114.42 47.9133L113.276 48.158L113.715 50.2113L112.878 50.3903L112.439 48.337L111.293 48.5822L111.77 50.8113L110.933 50.9903L110.239 47.7462ZM111.81 66.4534C112.107 66.4445 112.437 66.3586 112.8 66.1955C113.168 66.033 113.523 65.778 113.867 65.4304C114.21 65.0873 114.448 64.7297 114.582 64.3575L114.862 64.3965C114.899 64.7877 115.013 65.1739 115.206 65.555C115.402 65.9411 115.655 66.2761 115.966 66.56C116.285 66.8496 116.611 67.0516 116.945 67.1661L116.906 67.4469C116.677 67.4561 116.437 67.5044 116.184 67.592C115.935 67.6802 115.691 67.803 115.451 67.9605C115.215 68.1231 114.996 68.3108 114.794 68.5235C114.495 68.841 114.281 69.1769 114.15 69.5312L113.869 69.4923C113.854 69.2403 113.789 68.9723 113.674 68.6883C113.558 68.4088 113.411 68.143 113.232 67.8911C113.058 67.6397 112.867 67.427 112.66 67.2528C112.355 66.9969 112.058 66.824 111.771 66.7342L111.81 66.4534Z" fill="#4A5464"/>
<path d="M78.4094 59.8484V46.5901H65.1512M78.4094 46.5901L46.5896 78.4099" stroke="#4A5464" stroke-linecap="round" stroke-linejoin="round"/>
</svg>
